<svg xmlns="http://www.w3.org/2000/svg" version="1.1" xmlns:xlink="http://www.w3.org/1999/xlink" xmlns:svgjs="http://svgjs.dev/svgjs" width="1500" height="1500" viewBox="0 0 1500 1500"><rect width="1500" height="1500" fill="#000000"></rect><g transform="matrix(0.6666666666666666,0,0,0.6666666666666666,249.4948783472493,252.73630229419712)"><svg viewBox="0 0 248 247" data-background-color="#ffffff" preserveAspectRatio="xMidYMid meet" height="1493" width="1500" xmlns="http://www.w3.org/2000/svg" xmlns:xlink="http://www.w3.org/1999/xlink"><g id="tight-bounds" transform="matrix(1,0,0,1,0.1252701698821852,-0.09999999999999432)"><svg viewBox="0 0 247.74945966023566 247.2" height="247.2" width="247.74945966023566"><g><svg viewBox="0 0 395.52 394.6428142934622" height="247.2" width="247.74945966023566"><g transform="matrix(1,0,0,1,0,260.1533642105482)"><svg viewBox="0 0 395.52 134.489450082914" height="134.489450082914" width="395.52"><g id="textblocktransform"><svg viewBox="0 0 395.52 134.489450082914" height="134.489450082914" width="395.52" id="textblock"><g><svg viewBox="0 0 395.52 76.25280804694047" height="76.25280804694047" width="395.52"><g transform="matrix(1,0,0,1,0,0)"><svg width="395.52" viewBox="1.75 -36 238.58 46" height="76.25280804694047" data-palette-color="#2454ff"><path d="M21.8-7.9L17.25-7.9Q17.25-9.75 16.2-11.18 15.15-12.6 13.5-13.85 11.85-15.1 9.98-16.4 8.1-17.7 6.45-19.25 4.8-20.8 3.75-22.78 2.7-24.75 2.7-27.35L2.7-27.35 7.25-27.35Q7.25-25.55 8.3-24.13 9.35-22.7 11-21.43 12.65-20.15 14.53-18.85 16.4-17.55 18.05-16.03 19.7-14.5 20.75-12.53 21.8-10.55 21.8-7.9L21.8-7.9ZM7.25-27.25L2.7-27.25Q2.7-30 3.95-31.95 5.2-33.9 7.45-34.95 9.7-36 12.6-36L12.6-36 12.6-32.1Q10.1-32.1 8.68-30.8 7.25-29.5 7.25-27.25L7.25-27.25ZM17.25-8L21.8-8Q21.8-5.3 20.55-3.33 19.3-1.35 17.07-0.3 14.85 0.75 11.9 0.75L11.9 0.75 11.9-3.2Q14.4-3.2 15.83-4.48 17.25-5.75 17.25-8L17.25-8ZM21.55-28.55L17.3-27.7Q17.05-29.95 15.73-31.03 14.4-32.1 12.6-32.1L12.6-32.1 12.6-36Q14.95-36 16.85-35.05 18.75-34.1 20-32.45 21.25-30.8 21.55-28.55L21.55-28.55ZM1.75-9.05L5.9-9.9Q6.2-6.75 7.78-4.98 9.35-3.2 11.9-3.2L11.9-3.2 11.9 0.75Q7.65 0.75 4.98-1.85 2.3-4.45 1.75-9.05L1.75-9.05ZM31.15 0L26.6 0 26.6-25.25 31.15-25.25 31.15 0ZM44.2 0L39.65 0 39.65-17.2 44.2-17.2 44.2 0ZM31.15-17.1L29.1-17.1Q29.1-19.65 30.07-21.68 31.05-23.7 32.75-24.85 34.45-26 36.55-26L36.55-26 35.4-21.95Q33.6-21.95 32.37-20.6 31.15-19.25 31.15-17.1L31.15-17.1ZM44.2-17.2L39.65-17.2Q39.65-19.3 38.45-20.63 37.25-21.95 35.4-21.95L35.4-21.95 36.55-26Q38.75-26 40.47-24.85 42.2-23.7 43.2-21.73 44.2-19.75 44.2-17.2L44.2-17.2ZM57.2 0L52.65 0 52.65-17.2 57.2-17.2 57.2 0ZM44.2-17.1L42.15-17.1Q42.15-19.65 43.12-21.68 44.1-23.7 45.77-24.85 47.45-26 49.55-26L49.55-26 48.4-21.95Q46.6-21.95 45.4-20.6 44.2-19.25 44.2-17.1L44.2-17.1ZM57.2-17.2L52.65-17.2Q52.65-19.3 51.47-20.63 50.3-21.95 48.4-21.95L48.4-21.95 49.55-26Q51.75-26 53.47-24.85 55.2-23.7 56.2-21.73 57.2-19.75 57.2-17.2L57.2-17.2ZM80.4 0L75.84 0 75.84-17.2 80.4-17.2 80.4 0ZM69.75 0.75L69.75 0.75 70.09-3Q71.9-3 73.17-3.9 74.45-4.8 75.15-6.55 75.84-8.3 75.84-10.7L75.84-10.7 78.09-10.8Q78.09-7.4 77-4.8 75.9-2.2 74.02-0.73 72.15 0.75 69.75 0.75ZM70.09-3L69.75 0.75Q67.5 0.75 65.65-0.3 63.8-1.35 62.7-3.18 61.6-5 61.6-7.25L61.6-7.25 65.9-7.4Q65.9-5.5 67.17-4.25 68.45-3 70.09-3L70.09-3ZM65.9-7.4L61.6-7.25Q61.6-9.6 62.77-11.38 63.95-13.15 65.95-14.2 67.95-15.25 70.5-15.25L70.5-15.25 70.75-11.75Q68.65-11.75 67.27-10.53 65.9-9.3 65.9-7.4L65.9-7.4ZM78.2-11.75L70.75-11.75 70.5-15.25 78.2-15.25 78.2-11.75ZM78.09-10.8L75.84-10.7 75.84-17.15 78.09-17.15 78.09-10.8ZM80.4-17.1L80.4-17.1 75.84-17.1Q75.84-19.3 74.52-20.7 73.2-22.1 71.09-22.1L71.09-22.1 71.09-26Q73.8-26 75.87-24.85 77.95-23.7 79.17-21.68 80.4-19.65 80.4-17.1ZM66.4-17.7L66.4-17.7 62.2-18.55Q62.5-20.8 63.72-22.45 64.95-24.1 66.87-25.05 68.8-26 71.15-26L71.15-26 71.15-22.1Q69.3-22.1 67.97-21.03 66.65-19.95 66.4-17.7ZM90.09 0L85.54 0 85.54-25.25 90.09-25.25 90.09 0ZM90.09-16.9L88.04-16.9Q88.04-19.45 88.89-21.48 89.74-23.5 91.22-24.65 92.69-25.8 94.49-25.8L94.49-25.8 94.09-21.55Q92.34-21.55 91.22-20.23 90.09-18.9 90.09-16.9L90.09-16.9ZM98.64-24.2L97.09-20.4Q96.49-20.9 95.67-21.23 94.84-21.55 94.09-21.55L94.09-21.55 94.49-25.8Q95.64-25.8 96.74-25.38 97.84-24.95 98.64-24.2L98.64-24.2ZM108.59-7.65L104.04-7.65 104.04-35.3 108.59-35.25 108.59-7.65ZM114.89-21.5L101.14-21.5 101.14-25.25 114.89-25.25 114.89-21.5ZM104.04-7.7L104.04-7.7 108.59-7.7Q108.59-6.25 108.99-5.25 109.39-4.25 110.14-3.73 110.89-3.2 111.94-3.2L111.94-3.2 111.54 0.75Q108.04 0.75 106.04-1.48 104.04-3.7 104.04-7.7ZM114.29-4.05L114.29-4.05 116.09-0.8Q115.09-0.05 113.92 0.35 112.74 0.75 111.54 0.75L111.54 0.75 111.94-3.2Q112.59-3.2 113.17-3.43 113.74-3.65 114.29-4.05ZM148.29-7.9L143.74-7.9Q143.74-9.75 142.69-11.18 141.64-12.6 139.99-13.85 138.34-15.1 136.46-16.4 134.59-17.7 132.94-19.25 131.29-20.8 130.24-22.78 129.19-24.75 129.19-27.35L129.19-27.35 133.74-27.35Q133.74-25.55 134.79-24.13 135.84-22.7 137.49-21.43 139.14-20.15 141.01-18.85 142.89-17.55 144.54-16.03 146.19-14.5 147.24-12.53 148.29-10.55 148.29-7.9L148.29-7.9ZM133.74-27.25L129.19-27.25Q129.19-30 130.44-31.95 131.69-33.9 133.94-34.95 136.19-36 139.09-36L139.09-36 139.09-32.1Q136.59-32.1 135.16-30.8 133.74-29.5 133.74-27.25L133.74-27.25ZM143.74-8L148.29-8Q148.29-5.3 147.04-3.33 145.79-1.35 143.56-0.3 141.34 0.75 138.39 0.75L138.39 0.75 138.39-3.2Q140.89-3.2 142.31-4.48 143.74-5.75 143.74-8L143.74-8ZM148.04-28.55L143.79-27.7Q143.54-29.95 142.21-31.03 140.89-32.1 139.09-32.1L139.09-32.1 139.09-36Q141.44-36 143.34-35.05 145.24-34.1 146.49-32.45 147.74-30.8 148.04-28.55L148.04-28.55ZM128.24-9.05L132.39-9.9Q132.69-6.75 134.26-4.98 135.84-3.2 138.39-3.2L138.39-3.2 138.39 0.75Q134.14 0.75 131.46-1.85 128.79-4.45 128.24-9.05L128.24-9.05ZM153.08 10L153.08-0.05 157.63-0.05 157.63 10 153.08 10ZM153.08-25.25L157.63-25.25 157.63 0 153.08 0 153.08-25.25ZM167.13-17.2L171.68-17.2 171.68-8.05 167.13-8.05 167.13-17.2ZM167.13-8.05L167.13-8.05 171.68-8.05Q171.68-5.55 170.63-3.55 169.58-1.55 167.76-0.4 165.93 0.75 163.63 0.75L163.63 0.75 162.48-3.3Q164.53-3.3 165.83-4.63 167.13-5.95 167.13-8.05ZM155.63-8.2L155.63-8.2 157.63-8.2Q157.63-6 158.98-4.65 160.33-3.3 162.48-3.3L162.48-3.3 163.63 0.75Q161.33 0.75 159.53-0.43 157.73-1.6 156.68-3.63 155.63-5.65 155.63-8.2ZM171.68-17.2L167.13-17.2Q167.13-19.3 165.83-20.63 164.53-21.95 162.48-21.95L162.48-21.95 163.63-26Q165.93-26 167.76-24.85 169.58-23.7 170.63-21.7 171.68-19.7 171.68-17.2L171.68-17.2ZM157.63-17.1L155.63-17.1Q155.63-19.65 156.68-21.68 157.73-23.7 159.53-24.85 161.33-26 163.63-26L163.63-26 162.48-21.95Q160.33-21.95 158.98-20.6 157.63-19.25 157.63-17.1L157.63-17.1ZM194.08-11.25L177.03-11.25 177.03-14.5 194.08-14.5 194.08-11.25ZM185.03 0.8L184.78 0.8 184.78-3.15 185.03-3.15 185.03 0.8ZM180.13-8.95L175.58-8.95 175.58-16.3 180.13-16.3 180.13-8.95ZM194.08-14.5L189.53-14.5 189.53-17.1 194.08-17.1 194.08-14.5ZM194.08-17.1L194.08-17.1 189.53-17.1Q189.53-19.3 188.21-20.7 186.88-22.1 184.78-22.1L184.78-22.1 184.78-26Q187.48-26 189.56-24.85 191.63-23.7 192.86-21.68 194.08-19.65 194.08-17.1ZM189.73-7.5L189.73-7.5 193.98-6.65Q193.68-4.5 192.43-2.8 191.18-1.1 189.28-0.15 187.38 0.8 185.03 0.8L185.03 0.8 185.03-3.15Q186.83-3.15 188.16-4.23 189.48-5.3 189.73-7.5ZM180.13-16.25L175.58-16.25Q175.58-19.1 176.81-21.28 178.03-23.45 180.11-24.73 182.18-26 184.83-26L184.83-26 184.83-22.1Q182.63-22.1 181.38-20.58 180.13-19.05 180.13-16.25L180.13-16.25ZM175.58-8.95L175.58-8.95 180.13-8.95Q180.13-6.2 181.38-4.67 182.63-3.15 184.83-3.15L184.83-3.15 184.83 0.8Q182.18 0.8 180.11-0.48 178.03-1.75 176.81-3.95 175.58-6.15 175.58-8.95ZM203.28 0L198.73 0 198.73-25.25 203.28-25.25 203.28 0ZM217.33 0L212.78 0 212.78-17.2 217.33-17.2 217.33 0ZM217.33-17.2L212.78-17.2Q212.78-19.3 211.48-20.63 210.18-21.95 208.13-21.95L208.13-21.95 209.28-26Q211.58-26 213.4-24.85 215.23-23.7 216.28-21.7 217.33-19.7 217.33-17.2L217.33-17.2ZM203.28-17.1L201.28-17.1Q201.28-19.65 202.33-21.68 203.38-23.7 205.18-24.85 206.98-26 209.28-26L209.28-26 208.13-21.95Q205.98-21.95 204.63-20.6 203.28-19.25 203.28-17.1L203.28-17.1ZM240.33-35.25L240.33-25.2 235.78-25.2 235.78-35.25 240.33-35.25ZM240.33 0L235.78 0 235.78-25.25 240.33-25.25 240.33 0ZM226.28-8.05L221.73-8.05 221.73-17.2 226.28-17.2 226.28-8.05ZM226.28-17.2L226.28-17.2 221.73-17.2Q221.73-19.7 222.78-21.7 223.83-23.7 225.65-24.85 227.48-26 229.83-26L229.83-26 230.98-21.95Q228.93-21.95 227.6-20.63 226.28-19.3 226.28-17.2ZM237.78-17.1L237.78-17.1 235.78-17.1Q235.78-19.25 234.43-20.6 233.08-21.95 230.98-21.95L230.98-21.95 229.83-26Q232.08-26 233.9-24.85 235.73-23.7 236.75-21.68 237.78-19.65 237.78-17.1ZM221.73-8.05L226.28-8.05Q226.28-5.95 227.6-4.63 228.93-3.3 230.98-3.3L230.98-3.3 229.83 0.75Q227.48 0.75 225.65-0.4 223.83-1.55 222.78-3.55 221.73-5.55 221.73-8.05L221.73-8.05ZM235.78-8.2L237.78-8.2Q237.78-5.65 236.75-3.63 235.73-1.6 233.9-0.43 232.08 0.75 229.83 0.75L229.83 0.75 230.98-3.3Q233.08-3.3 234.43-4.65 235.78-6 235.78-8.2L235.78-8.2Z" opacity="1" transform="matrix(1,0,0,1,0,0)" fill="#ffffff" class="wordmark-text-0" data-fill-palette-color="primary" id="text-0"></path></svg></g></svg></g><g transform="matrix(1,0,0,1,0,94.25426595943)"><svg viewBox="0 0 395.52 40.23518412348401" height="40.23518412348401" width="395.52"><g transform="matrix(1,0,0,1,0,0)"><svg width="395.52" viewBox="2.15 -36 425.11625000000004 43.25" height="40.23518412348401" data-palette-color="#2454ff"><path d="M2.15-31.5L2.15-35 28.4-35 28.4-31.5 17.3-31.5 17.3 0 13.3 0 13.3-31.5 2.15-31.5ZM30.1 0L30.1-25 33.55-25 33.75-21.35Q34.75-22.7 36.17-23.65 37.6-24.6 39.32-24.98 41.05-25.35 43-25L43-25 43-21.25Q40.9-21.65 39.22-21.25 37.55-20.85 36.35-19.75 35.15-18.65 34.5-16.98 33.85-15.3 33.85-13.1L33.85-13.1 33.85 0 30.1 0ZM67.2 0L63.75 0 63.45-4.5Q62.4-2.2 60.35-0.93 58.3 0.35 55.15 0.35L55.15 0.35Q52.45 0.35 50.55-0.5 48.65-1.35 47.62-2.93 46.6-4.5 46.6-6.65L46.6-6.65Q46.6-9.8 48.95-11.83 51.3-13.85 55.75-14.3L55.75-14.3 63.45-15.15 63.45-17.15Q63.45-19.25 61.9-20.53 60.35-21.8 57.7-21.8L57.7-21.8Q55.1-21.8 53.37-20.6 51.65-19.4 51-17.15L51-17.15 47.6-18.35Q48.6-21.65 51.27-23.5 53.95-25.35 57.8-25.35L57.8-25.35Q62.25-25.35 64.72-23.08 67.2-20.8 67.2-16.9L67.2-16.9 67.2 0ZM63.45-11.15L63.45-11.95 55.7-11.05Q53.2-10.75 51.9-9.68 50.6-8.6 50.6-6.85L50.6-6.85Q50.6-5.1 51.87-4.05 53.15-3 55.55-3L55.55-3Q58.3-3 60.05-4.1 61.8-5.2 62.62-7.08 63.45-8.95 63.45-11.15L63.45-11.15ZM85.14 0.35L85.14 0.35Q81.49 0.35 78.74-1.25 75.99-2.85 74.47-5.73 72.94-8.6 72.94-12.4L72.94-12.4Q72.94-16.25 74.47-19.18 75.99-22.1 78.74-23.73 81.49-25.35 85.14-25.35L85.14-25.35Q88.99-25.35 91.89-23.58 94.79-21.8 96.09-18.65L96.09-18.65 92.64-17.45Q91.89-19.45 89.92-20.63 87.94-21.8 85.34-21.8L85.34-21.8Q82.79-21.8 80.92-20.65 79.04-19.5 78.02-17.4 76.99-15.3 76.99-12.45L76.99-12.45Q76.99-8.25 79.24-5.73 81.49-3.2 85.24-3.2L85.24-3.2Q87.79-3.2 89.79-4.35 91.79-5.5 92.74-7.45L92.74-7.45 96.14-6.25Q94.79-3.15 91.89-1.4 88.99 0.35 85.14 0.35ZM102.29 0L102.29-36 106.09-36 106.09-14.15 108.39-14.15 118.24-25 123.54-25 111.74-12.5 123.59 0 118.24 0 108.39-10.9 106.09-10.9 106.09 0 102.29 0ZM126.24 7.25L129.94-6.05 134.34-6.05 128.94 7.25 126.24 7.25ZM154.08-7.45L157.73-8.9Q158.03-7.55 159.01-6.23 159.98-4.9 161.71-4.03 163.43-3.15 166.13-3.15L166.13-3.15Q169.98-3.15 171.83-4.95 173.68-6.75 173.68-9.2L173.68-9.2Q173.68-11.15 172.63-12.4 171.58-13.65 169.78-14.48 167.98-15.3 165.73-15.95L165.73-15.95Q163.73-16.5 161.76-17.18 159.78-17.85 158.18-18.88 156.58-19.9 155.63-21.55 154.68-23.2 154.68-25.65L154.68-25.65Q154.68-28.6 156.08-30.78 157.48-32.95 160.03-34.15 162.58-35.35 165.98-35.35L165.98-35.35Q168.93-35.35 171.13-34.5 173.33-33.65 174.81-32.13 176.28-30.6 176.98-28.6L176.98-28.6 173.43-27.25Q173.08-28.4 172.08-29.48 171.08-30.55 169.48-31.25 167.88-31.95 165.83-31.95L165.83-31.95Q163.83-31.95 162.21-31.25 160.58-30.55 159.63-29.25 158.68-27.95 158.68-26.1L158.68-26.1Q158.68-24.1 159.81-22.93 160.93-21.75 162.81-21.03 164.68-20.3 166.93-19.65L166.93-19.65Q168.98-19 170.91-18.25 172.83-17.5 174.36-16.4 175.88-15.3 176.78-13.65 177.68-12 177.68-9.6L177.68-9.6Q177.68-6.95 176.43-4.67 175.18-2.4 172.66-1.03 170.13 0.35 166.18 0.35L166.18 0.35Q162.88 0.35 160.38-0.68 157.88-1.7 156.28-3.45 154.68-5.2 154.08-7.45L154.08-7.45ZM203.18 0L199.73 0 199.43-4.5Q198.38-2.2 196.33-0.93 194.28 0.35 191.13 0.35L191.13 0.35Q188.43 0.35 186.53-0.5 184.63-1.35 183.61-2.93 182.58-4.5 182.58-6.65L182.58-6.65Q182.58-9.8 184.93-11.83 187.28-13.85 191.73-14.3L191.73-14.3 199.43-15.15 199.43-17.15Q199.43-19.25 197.88-20.53 196.33-21.8 193.68-21.8L193.68-21.8Q191.08-21.8 189.36-20.6 187.63-19.4 186.98-17.15L186.98-17.15 183.58-18.35Q184.58-21.65 187.26-23.5 189.93-25.35 193.78-25.35L193.78-25.35Q198.23-25.35 200.71-23.08 203.18-20.8 203.18-16.9L203.18-16.9 203.18 0ZM199.43-11.15L199.43-11.95 191.68-11.05Q189.18-10.75 187.88-9.68 186.58-8.6 186.58-6.85L186.58-6.85Q186.58-5.1 187.86-4.05 189.13-3 191.53-3L191.53-3Q194.28-3 196.03-4.1 197.78-5.2 198.61-7.08 199.43-8.95 199.43-11.15L199.43-11.15ZM207.33-25L211.33-25 219.23-4.2 227.18-25 231.13-25 221.13 0 217.23 0 207.33-25ZM246.23 0.35L246.23 0.35Q242.73 0.35 240-1.35 237.28-3.05 235.73-6 234.18-8.95 234.18-12.75L234.18-12.75Q234.18-16.4 235.73-19.25 237.28-22.1 239.98-23.73 242.68-25.35 246.13-25.35L246.13-25.35Q249.53-25.35 252.2-23.85 254.88-22.35 256.38-19.7 257.88-17.05 257.78-13.65L257.78-13.65Q257.78-13.1 257.73-12.5 257.68-11.9 257.63-11.2L257.63-11.2 238.28-11.2Q238.38-8.85 239.43-7.05 240.48-5.25 242.2-4.23 243.93-3.2 246.13-3.2L246.13-3.2Q249.03-3.2 251.05-4.3 253.08-5.4 253.98-7.45L253.98-7.45 257.23-6.15Q255.73-3 252.88-1.33 250.03 0.35 246.23 0.35ZM238.33-14.45L253.68-14.45Q253.73-16.6 252.75-18.25 251.78-19.9 250.03-20.85 248.28-21.8 245.98-21.8L245.98-21.8Q243.98-21.8 242.33-20.85 240.68-19.9 239.6-18.23 238.53-16.55 238.33-14.45L238.33-14.45ZM260.47 7.25L264.17-6.05 268.57-6.05 263.17 7.25 260.47 7.25ZM287.92-31.5L287.92-35 314.17-35 314.17-31.5 303.07-31.5 303.07 0 299.07 0 299.07-31.5 287.92-31.5ZM320.12 0L320.12-36 323.87-36 323.87-21.6Q325.07-23.4 327.12-24.38 329.17-25.35 331.72-25.35L331.72-25.35Q334.47-25.35 336.62-24.1 338.77-22.85 339.99-20.4 341.22-17.95 341.22-14.3L341.22-14.3 341.22 0 337.22 0 337.22-13.85Q337.22-17.75 335.57-19.83 333.92-21.9 330.77-21.9L330.77-21.9Q327.52-21.9 325.69-19.7 323.87-17.5 323.87-13.3L323.87-13.3 323.87 0 320.12 0ZM348.46 0L348.46-25 351.91-25 352.11-21.35Q353.11-22.7 354.54-23.65 355.96-24.6 357.69-24.98 359.41-25.35 361.36-25L361.36-25 361.36-21.25Q359.26-21.65 357.59-21.25 355.91-20.85 354.71-19.75 353.51-18.65 352.86-16.98 352.21-15.3 352.21-13.1L352.21-13.1 352.21 0 348.46 0ZM367.21 0L367.21-25 370.91-25 370.91 0 367.21 0ZM369.11-30L369.11-30Q367.96-30 367.21-30.75 366.46-31.5 366.46-32.6L366.46-32.6Q366.46-33.75 367.21-34.5 367.96-35.25 369.11-35.25L369.11-35.25Q370.16-35.25 370.94-34.5 371.71-33.75 371.71-32.6L371.71-32.6Q371.71-31.5 370.94-30.75 370.16-30 369.11-30ZM376.81-25L380.81-25 388.71-4.2 396.66-25 400.61-25 390.61 0 386.71 0 376.81-25ZM415.71 0.35L415.71 0.35Q412.21 0.35 409.48-1.35 406.76-3.05 405.21-6 403.66-8.95 403.66-12.75L403.66-12.75Q403.66-16.4 405.21-19.25 406.76-22.1 409.46-23.73 412.16-25.35 415.61-25.35L415.61-25.35Q419.01-25.35 421.68-23.85 424.36-22.35 425.86-19.7 427.36-17.05 427.26-13.65L427.26-13.65Q427.26-13.1 427.21-12.5 427.16-11.9 427.11-11.2L427.11-11.2 407.76-11.2Q407.86-8.85 408.91-7.05 409.96-5.25 411.68-4.23 413.41-3.2 415.61-3.2L415.61-3.2Q418.51-3.2 420.53-4.3 422.56-5.4 423.46-7.45L423.46-7.45 426.71-6.15Q425.21-3 422.36-1.33 419.51 0.35 415.71 0.35ZM407.81-14.45L423.16-14.45Q423.21-16.6 422.23-18.25 421.26-19.9 419.51-20.85 417.76-21.8 415.46-21.8L415.46-21.8Q413.46-21.8 411.81-20.85 410.16-19.9 409.08-18.23 408.01-16.55 407.81-14.45L407.81-14.45Z" opacity="1" transform="matrix(1,0,0,1,0,0)" fill="#ffffff" class="slogan-text-1" data-fill-palette-color="secondary" id="text-1"></path></svg></g></svg></g></svg></g></svg></g><g transform="matrix(1,0,0,1,85.6847758072154,0)"><svg viewBox="0 0 224.15044838556918 224.15044838556918" height="224.15044838556918" width="224.15044838556918"><g><svg></svg></g><g id="icon-0"><svg viewBox="0 0 224.15044838556918 224.15044838556918" height="224.15044838556918" width="224.15044838556918"><g><path d="M0 112.075c0-61.897 50.178-112.075 112.075-112.075 61.897 0 112.075 50.178 112.075 112.075 0 61.897-50.178 112.075-112.075 112.075-61.897 0-112.075-50.178-112.075-112.075zM112.075 217.274c58.1 0 105.199-47.099 105.199-105.199 0-58.1-47.099-105.199-105.199-105.198-58.1 0-105.199 47.099-105.198 105.198 0 58.1 47.099 105.199 105.198 105.199z" data-fill-palette-color="accent" fill="#ffffff" stroke="transparent"></path><ellipse rx="110.95447195085674" ry="110.95447195085674" cx="112.07522419278459" cy="112.07522419278459" fill="#ffffff" stroke="transparent" stroke-width="0" fill-opacity="1" data-fill-palette-color="accent"></ellipse></g><g transform="matrix(1,0,0,1,50.136914035883926,50.136914035883926)"><svg viewBox="0 0 123.87662031380133 123.87662031380133" height="123.87662031380133" width="123.87662031380133"><g><svg xmlns="http://www.w3.org/2000/svg" xmlns:xlink="http://www.w3.org/1999/xlink" xmlns:serif="http://www.serif.com/" viewBox="0 0 32 32" version="1.1" xml:space="preserve" style="" x="0" y="0" fill-rule="evenodd" clip-rule="evenodd" stroke-linejoin="round" stroke-miterlimit="1.41421" height="123.87662031380133" width="123.87662031380133" class="icon-cg-0" data-fill-palette-color="quaternary" id="cg-0"><path d="M9.552 6.739c2.073 0.008 4.133 0.435 6.092 1.047 3.251 1.007 6.83 0.97 10.061-0.102 0 0 0.641-0.122 1.005 0.224 0.196 0.187 0.299 0.453 0.312 0.726 0 1.557 0 3.114 0 4.671l0 4.67-0.004 0.093c-0.012 0.081-0.012 0.102-0.034 0.181-0.184 0.648-1.111 0.946-1.637 0.466-0.205-0.187-0.314-0.46-0.327-0.74 0-2.627 0-5.254 0-7.882l0-0.125c-3.306 0.835-6.869 0.72-10.104-0.312-3.228-1.031-6.68-1.206-9.914-0.284l0 12.607c0.052-0.013 0.105-0.026 0.158-0.039 3.405-0.823 6.977-0.619 10.311 0.471 1.479 0.478 3.002 0.793 4.541 0.85 0 0 0.062-0.011 0.221 0.024 0.804 0.179 1.094 1.58 0.112 1.922-0.195 0.068-0.407 0.056-0.614 0.045-1.828-0.09-3.59-0.54-5.353-1.091-3.263-1.01-6.831-0.97-10.059 0.102 0 0-0.173 0.041-0.173 0.041-0.581 0.058-1.119-0.389-1.146-0.99l0-14.68c0.022-0.49 0.369-0.849 0.862-1.008 1.827-0.589 3.77-0.889 5.69-0.887Zm18.471 16.241l-4.004 0c-0.601-0.012-1.111-0.614-0.977-1.218 0.098-0.44 0.52-0.775 0.977-0.784l4.004 0c0.013 0 0.026 0.001 0.04 0.001 0.747 0.045 1.259 1.057 0.702 1.672-0.187 0.206-0.466 0.324-0.742 0.329Zm-9.321-3.399c0.152 0.005 0.179 0.015 0.265 0.024 0.561 0.053 1.124 0.081 1.687 0.077 0 0 0.489 0.043 0.748 0.33 0.501 0.553 0.149 1.654-0.736 1.672-0.7 0.004-1.396-0.034-2.09-0.107 0 0-0.48-0.095-0.707-0.41-0.413-0.573-0.02-1.546 0.776-1.586 0.029 0 0.029 0 0.057 0Zm-3.667-7.345c1.724 0.016 3.335 1.347 3.651 3.054 0.429 2.314-1.709 4.85-4.358 4.359-1.517-0.281-2.79-1.597-3.015-3.131-0.304-2.073 1.397-4.232 3.626-4.281 0.032-0.001 0.064-0.001 0.096-0.001Zm-0.035 2.002c-1.137 0.011-2.077 1.35-1.568 2.458 0.453 0.985 1.935 1.317 2.761 0.548 0.964-0.897 0.466-2.96-1.137-3.006-0.019 0-0.038 0-0.056 0Zm-5.433-3.832c0.608 0.002 1.218 0.036 1.823 0.101 0.29 0.031 1.251 0.649 0.844 1.454-0.206 0.408-0.69 0.574-1.169 0.525-1.094-0.109-2.198-0.097-3.289 0.018 0 0-0.656-0.008-0.943-0.448-0.36-0.552-0.026-1.434 0.695-1.538 0.664-0.095 1.354-0.113 2.039-0.112Z" fill-rule="nonzero" fill="#000000" data-fill-palette-color="quaternary"></path></svg></g></svg></g></svg></g></svg></g><g></g></svg></g><defs></defs></svg><rect width="247.74945966023566" height="247.2" fill="none" stroke="none" visibility="hidden"></rect></g></svg></g></svg>